G04*
G04 #@! TF.GenerationSoftware,Altium Limited,Altium Designer,22.9.1 (49)*
G04*
G04 Layer_Color=32768*
%FSLAX44Y44*%
%MOMM*%
G71*
G04*
G04 #@! TF.SameCoordinates,8BA292B5-A8A8-46AB-8795-62B0E452CD41*
G04*
G04*
G04 #@! TF.FilePolarity,Positive*
G04*
G01*
G75*
%ADD11C,0.2000*%
%ADD49C,0.1000*%
%ADD50C,0.0500*%
D11*
X419060Y241770D02*
G03*
X419060Y388770I0J73500D01*
G01*
D02*
G03*
X419060Y241770I0J-73500D01*
G01*
X604000Y34790D02*
X632900D01*
Y294290D01*
X604000D02*
X632900D01*
X604000Y34790D02*
Y294290D01*
X596680Y409850D02*
X638080D01*
X596680Y347850D02*
Y409850D01*
Y347850D02*
X638080D01*
Y409850D01*
X516450Y283550D02*
Y383350D01*
Y283550D02*
X568050D01*
Y383350D01*
X516450D02*
X568050D01*
X133760Y86270D02*
Y113270D01*
X94760D02*
X133760D01*
X94760Y86270D02*
Y113270D01*
Y86270D02*
X133760D01*
X135030Y165010D02*
Y192010D01*
X96030D02*
X135030D01*
X96030Y165010D02*
Y192010D01*
Y165010D02*
X135030D01*
X112960Y308300D02*
X140960D01*
X112960Y244300D02*
Y308300D01*
Y244300D02*
X140960D01*
Y308300D01*
D49*
X63460Y278920D02*
Y288920D01*
X58460Y283920D02*
X68460D01*
X389850Y451640D02*
Y461640D01*
X384850Y456640D02*
X394850D01*
X185460D02*
X195460D01*
X190460Y451640D02*
Y461640D01*
X525820Y451560D02*
X535820D01*
X530820Y446560D02*
Y456560D01*
X284440Y248440D02*
Y258440D01*
X279440Y253440D02*
X289440D01*
X196890Y278840D02*
X206890D01*
X201890Y273840D02*
Y283840D01*
X524000Y86000D02*
Y96000D01*
X519000Y91000D02*
X529000D01*
X530820Y164620D02*
Y174620D01*
X525820Y169620D02*
X535820D01*
X184110Y131330D02*
Y141330D01*
X179110Y136330D02*
X189110D01*
D50*
X200101Y78767D02*
G03*
X208360Y87830I-500J8750D01*
G01*
X159860Y88017D02*
G03*
X168110Y78767I8750J-500D01*
G01*
Y194080D02*
G03*
X159860Y184830I500J-8750D01*
G01*
X208360Y185017D02*
G03*
X200101Y194080I-8759J313D01*
G01*
X117300Y347410D02*
Y390590D01*
X160700D01*
Y347410D02*
Y390590D01*
X117300Y347410D02*
X160700D01*
X387300Y79410D02*
Y122590D01*
X430700D01*
Y79410D02*
Y122590D01*
X387300Y79410D02*
X430700D01*
X389300Y158410D02*
Y201590D01*
X432700D01*
Y158410D02*
Y201590D01*
X389300Y158410D02*
X432700D01*
X33460Y257522D02*
Y310322D01*
X93460Y257522D02*
Y310322D01*
X33460Y257522D02*
X93460D01*
X33460Y310322D02*
X93460D01*
X442600Y443640D02*
Y469640D01*
X337100D02*
X442600D01*
X337100Y443640D02*
X442600D01*
X337100D02*
Y469640D01*
X164058Y426640D02*
X216858D01*
X164058Y486640D02*
X216858D01*
Y426640D02*
Y486640D01*
X164058Y426640D02*
Y486640D01*
X504422Y481560D02*
X557222D01*
X504422Y421560D02*
X557222D01*
X504422D02*
Y481560D01*
X557222Y421560D02*
Y481560D01*
X188890Y331590D02*
X214890D01*
X188890Y226090D02*
Y331590D01*
X214890Y226090D02*
Y331590D01*
X188890Y226090D02*
X214890D01*
X576750Y78000D02*
Y104000D01*
X471250D02*
X576750D01*
X471250Y78000D02*
X576750D01*
X471250D02*
Y104000D01*
X583570Y156620D02*
Y182620D01*
X478070D02*
X583570D01*
X478070Y156620D02*
X583570D01*
X478070D02*
Y182620D01*
X168110Y78767D02*
X200101D01*
X168110Y194080D02*
X200101D01*
X208360Y87830D02*
Y184830D01*
X159860Y87830D02*
Y184830D01*
M02*
