G04*
G04 #@! TF.GenerationSoftware,Altium Limited,Altium Designer,22.9.1 (49)*
G04*
G04 Layer_Physical_Order=1*
G04 Layer_Color=255*
%FSLAX44Y44*%
%MOMM*%
G71*
G04*
G04 #@! TF.SameCoordinates,8BA292B5-A8A8-46AB-8795-62B0E452CD41*
G04*
G04*
G04 #@! TF.FilePolarity,Positive*
G04*
G01*
G75*
%ADD15C,1.7000*%
%ADD16R,1.7000X1.7000*%
%ADD24C,1.3900*%
%ADD25R,1.3900X1.3900*%
%ADD28C,1.2000*%
%ADD29R,1.2000X1.2000*%
%ADD31R,1.2000X1.2000*%
%ADD32C,1.4500*%
%ADD33R,1.4500X1.4500*%
%ADD37C,0.5000*%
%ADD38C,0.3200*%
%ADD39C,0.3000*%
%ADD40R,1.6000X1.6000*%
%ADD41C,1.6000*%
%ADD42R,1.3500X1.3500*%
%ADD43C,1.3500*%
%ADD44R,1.7000X1.7000*%
%ADD45C,1.5000*%
%ADD46R,1.5000X1.5000*%
%ADD47R,1.3500X1.3500*%
%ADD48C,2.5000*%
G36*
X55000Y500000D02*
X655000D01*
Y45000D01*
X625000Y15000D01*
X55000D01*
X52507Y259277D01*
X53401Y260180D01*
X62190D01*
Y271220D01*
Y282260D01*
X52420D01*
Y282260D01*
X52273Y282259D01*
X52177Y291622D01*
X53444Y291968D01*
X54658Y289866D01*
X56706Y287818D01*
X59214Y286370D01*
X62012Y285620D01*
X64908D01*
X67706Y286370D01*
X70214Y287818D01*
X72262Y289866D01*
X73710Y292374D01*
X74408Y294980D01*
X118460D01*
Y292800D01*
X129548D01*
X141384Y280964D01*
X142740Y280058D01*
X144340Y279740D01*
X226828D01*
X236926Y269642D01*
X236340Y267456D01*
Y264823D01*
X237022Y262280D01*
X238338Y260000D01*
X240200Y258138D01*
X242480Y256821D01*
X245023Y256140D01*
X247656D01*
X250200Y256821D01*
X252480Y258138D01*
X254342Y260000D01*
X255658Y262280D01*
X256340Y264823D01*
Y267456D01*
X255658Y270000D01*
X254342Y272280D01*
X252480Y274142D01*
X250200Y275459D01*
X247656Y276140D01*
X245023D01*
X242838Y275554D01*
X231516Y286876D01*
X230160Y287782D01*
X228560Y288100D01*
X146072D01*
X135460Y298712D01*
Y309800D01*
X131140D01*
Y358500D01*
X136800D01*
Y379500D01*
X115800D01*
Y358500D01*
X122780D01*
Y309800D01*
X118460D01*
Y303340D01*
X72282D01*
X72262Y303374D01*
X70214Y305422D01*
X67706Y306870D01*
X64908Y307620D01*
X62012D01*
X59214Y306870D01*
X56706Y305422D01*
X54658Y303374D01*
X53351Y301110D01*
X52268Y301243D01*
X52078Y301319D01*
X50017Y503320D01*
X51188Y503812D01*
X55000Y500000D01*
D02*
G37*
%LPC*%
G36*
X354100Y465890D02*
X335600D01*
Y460718D01*
X281900D01*
X281900Y460718D01*
X280339Y460408D01*
X279016Y459524D01*
X249456Y429964D01*
X248572Y428641D01*
X248552Y428540D01*
X236340D01*
Y408540D01*
X256340D01*
Y424146D01*
X256418Y424540D01*
X256418Y424540D01*
Y425391D01*
X283589Y452562D01*
X335600D01*
Y447390D01*
X354100D01*
Y465890D01*
D02*
G37*
G36*
X544973Y462600D02*
X544790D01*
Y452830D01*
X554560D01*
Y453013D01*
X553808Y455821D01*
X552354Y458339D01*
X550299Y460394D01*
X547781Y461848D01*
X544973Y462600D01*
D02*
G37*
G36*
X542250D02*
X542067D01*
X539259Y461848D01*
X536741Y460394D01*
X534686Y458339D01*
X533232Y455821D01*
X532480Y453013D01*
Y452830D01*
X542250D01*
Y462600D01*
D02*
G37*
G36*
X436068Y465890D02*
X433632D01*
X431280Y465260D01*
X429170Y464042D01*
X427448Y462320D01*
X426231Y460210D01*
X425600Y457858D01*
Y455422D01*
X426231Y453070D01*
X427448Y450960D01*
X429170Y449238D01*
X431280Y448020D01*
X433632Y447390D01*
X436068D01*
X438420Y448020D01*
X440530Y449238D01*
X442252Y450960D01*
X443470Y453070D01*
X444100Y455422D01*
Y457858D01*
X443470Y460210D01*
X442252Y462320D01*
X440530Y464042D01*
X438420Y465260D01*
X436068Y465890D01*
D02*
G37*
G36*
X554560Y450290D02*
X544790D01*
Y440520D01*
X544973D01*
X547781Y441272D01*
X550299Y442726D01*
X552354Y444781D01*
X553808Y447299D01*
X554560Y450107D01*
Y450290D01*
D02*
G37*
G36*
X542250D02*
X532480D01*
Y450107D01*
X533232Y447299D01*
X534686Y444781D01*
X536741Y442726D01*
X539259Y441272D01*
X542067Y440520D01*
X542250D01*
Y450290D01*
D02*
G37*
G36*
X529120Y462560D02*
X507120D01*
Y451990D01*
X506877Y450746D01*
X505317Y450435D01*
X503993Y449551D01*
X503993Y449551D01*
X477061Y422618D01*
X331732D01*
X330542Y424680D01*
X328680Y426542D01*
X326400Y427859D01*
X323857Y428540D01*
X321223D01*
X318680Y427859D01*
X316400Y426542D01*
X314538Y424680D01*
X313221Y422400D01*
X312540Y419856D01*
Y417224D01*
X313221Y414680D01*
X314538Y412400D01*
X316400Y410538D01*
X318680Y409221D01*
X321223Y408540D01*
X323857D01*
X326400Y409221D01*
X328680Y410538D01*
X330542Y412400D01*
X331732Y414462D01*
X478750D01*
X478750Y414462D01*
X480311Y414772D01*
X481634Y415656D01*
X506039Y440062D01*
X507120Y440560D01*
Y440560D01*
X507120Y440560D01*
X529120D01*
Y462560D01*
D02*
G37*
G36*
X615910Y408340D02*
X607690D01*
Y400120D01*
X615910D01*
Y408340D01*
D02*
G37*
G36*
X323857Y403140D02*
X321223D01*
X318680Y402458D01*
X316400Y401142D01*
X314538Y399280D01*
X313221Y397000D01*
X312540Y394456D01*
Y391824D01*
X313221Y389280D01*
X314538Y387000D01*
X316400Y385138D01*
X318680Y383821D01*
X321223Y383140D01*
X323857D01*
X326400Y383821D01*
X328680Y385138D01*
X330542Y387000D01*
X331858Y389280D01*
X332540Y391824D01*
Y394456D01*
X331858Y397000D01*
X330542Y399280D01*
X328680Y401142D01*
X326400Y402458D01*
X323857Y403140D01*
D02*
G37*
G36*
X214160Y467640D02*
X192160D01*
Y445640D01*
X199082D01*
Y407110D01*
X199082Y407110D01*
X199392Y405549D01*
X200276Y404226D01*
X214246Y390256D01*
X214246Y390256D01*
X215569Y389372D01*
X217130Y389062D01*
X237148D01*
X238338Y387000D01*
X240200Y385138D01*
X242480Y383821D01*
X245023Y383140D01*
X247656D01*
X250200Y383821D01*
X252480Y385138D01*
X254342Y387000D01*
X255658Y389280D01*
X256340Y391824D01*
Y394456D01*
X255658Y397000D01*
X254342Y399280D01*
X252480Y401142D01*
X250200Y402458D01*
X247656Y403140D01*
X245023D01*
X242480Y402458D01*
X240200Y401142D01*
X238338Y399280D01*
X237148Y397218D01*
X218819D01*
X207238Y408799D01*
Y445640D01*
X214160D01*
Y467640D01*
D02*
G37*
G36*
X543570Y367351D02*
Y360120D01*
X550801D01*
X550258Y362146D01*
X549133Y364094D01*
X547543Y365684D01*
X545596Y366808D01*
X543570Y367351D01*
D02*
G37*
G36*
X541030D02*
X539003Y366808D01*
X537056Y365684D01*
X535466Y364094D01*
X534342Y362146D01*
X533799Y360120D01*
X541030D01*
Y367351D01*
D02*
G37*
G36*
X323857Y377740D02*
X321223D01*
X318680Y377058D01*
X316400Y375742D01*
X314538Y373880D01*
X313221Y371600D01*
X312540Y369057D01*
Y366423D01*
X313221Y363880D01*
X314538Y361600D01*
X316400Y359738D01*
X318680Y358422D01*
X321223Y357740D01*
X323857D01*
X326400Y358422D01*
X328680Y359738D01*
X330542Y361600D01*
X331858Y363880D01*
X332540Y366423D01*
Y369057D01*
X331858Y371600D01*
X330542Y373880D01*
X328680Y375742D01*
X326400Y377058D01*
X323857Y377740D01*
D02*
G37*
G36*
X179208Y467640D02*
X176312D01*
X173514Y466890D01*
X171006Y465442D01*
X168958Y463394D01*
X167510Y460886D01*
X166760Y458088D01*
Y455192D01*
X167510Y452394D01*
X168958Y449886D01*
X171006Y447838D01*
X173514Y446390D01*
X173682Y446345D01*
Y395680D01*
X173682Y395680D01*
X173992Y394119D01*
X174876Y392796D01*
X202816Y364856D01*
X204139Y363972D01*
X205700Y363662D01*
X205700Y363662D01*
X237148D01*
X238338Y361600D01*
X240200Y359738D01*
X242480Y358422D01*
X245023Y357740D01*
X247656D01*
X250200Y358422D01*
X252480Y359738D01*
X254342Y361600D01*
X255658Y363880D01*
X256340Y366423D01*
Y369057D01*
X255658Y371600D01*
X254342Y373880D01*
X252480Y375742D01*
X250200Y377058D01*
X247656Y377740D01*
X245023D01*
X242480Y377058D01*
X240200Y375742D01*
X238338Y373880D01*
X237148Y371818D01*
X207389D01*
X181838Y397369D01*
Y446345D01*
X182006Y446390D01*
X184514Y447838D01*
X186562Y449886D01*
X188010Y452394D01*
X188760Y455192D01*
Y458088D01*
X188010Y460886D01*
X186562Y463394D01*
X184514Y465442D01*
X182006Y466890D01*
X179208Y467640D01*
D02*
G37*
G36*
X550801Y357580D02*
X543570D01*
Y350349D01*
X545596Y350892D01*
X547543Y352016D01*
X549133Y353606D01*
X550258Y355554D01*
X550801Y357580D01*
D02*
G37*
G36*
X541030D02*
X533799D01*
X534078Y356540D01*
X521988Y344450D01*
X427951D01*
X426894Y346281D01*
X425071Y348104D01*
X422839Y349393D01*
X420349Y350060D01*
X420330D01*
Y340270D01*
Y330480D01*
X420349D01*
X422839Y331147D01*
X425071Y332436D01*
X426894Y334259D01*
X427951Y336090D01*
X523720D01*
X525319Y336408D01*
X526676Y337314D01*
X539989Y350628D01*
X541030Y350349D01*
Y357580D01*
D02*
G37*
G36*
X323857Y352340D02*
X321223D01*
X318680Y351659D01*
X316400Y350342D01*
X314538Y348480D01*
X313221Y346200D01*
X312540Y343657D01*
Y341023D01*
X313221Y338480D01*
X314538Y336200D01*
X316400Y334338D01*
X318680Y333022D01*
X321223Y332340D01*
X323857D01*
X326400Y333022D01*
X328680Y334338D01*
X330542Y336200D01*
X331858Y338480D01*
X332540Y341023D01*
Y343657D01*
X331858Y346200D01*
X330542Y348480D01*
X328680Y350342D01*
X326400Y351659D01*
X323857Y352340D01*
D02*
G37*
G36*
X247656D02*
X245023D01*
X242480Y351659D01*
X240200Y350342D01*
X238338Y348480D01*
X237022Y346200D01*
X236340Y343657D01*
Y341023D01*
X237022Y338480D01*
X238338Y336200D01*
X240200Y334338D01*
X242480Y333022D01*
X245023Y332340D01*
X247656D01*
X250200Y333022D01*
X252480Y334338D01*
X254342Y336200D01*
X255658Y338480D01*
X256340Y341023D01*
Y343657D01*
X255658Y346200D01*
X254342Y348480D01*
X252480Y350342D01*
X250200Y351659D01*
X247656Y352340D01*
D02*
G37*
G36*
X417790Y350060D02*
X417771D01*
X415281Y349393D01*
X413049Y348104D01*
X411226Y346281D01*
X410169Y344450D01*
X396670D01*
X395070Y344132D01*
X393714Y343226D01*
X326075Y275587D01*
X323862Y276180D01*
X323810D01*
Y267410D01*
X332580D01*
Y267462D01*
X331987Y269675D01*
X398401Y336090D01*
X410169D01*
X411226Y334259D01*
X413049Y332436D01*
X415281Y331147D01*
X417771Y330480D01*
X417790D01*
Y340270D01*
Y350060D01*
D02*
G37*
G36*
X543419Y341950D02*
X541181D01*
X539019Y341371D01*
X537081Y340252D01*
X535498Y338669D01*
X534379Y336731D01*
X533800Y334569D01*
Y332331D01*
X534379Y330169D01*
X535498Y328231D01*
X537081Y326648D01*
X539019Y325529D01*
X541181Y324950D01*
X543419D01*
X545581Y325529D01*
X547519Y326648D01*
X549101Y328231D01*
X550220Y330169D01*
X550800Y332331D01*
Y334569D01*
X550220Y336731D01*
X549101Y338669D01*
X547519Y340252D01*
X545581Y341371D01*
X543419Y341950D01*
D02*
G37*
G36*
X153082Y379500D02*
X150318D01*
X147647Y378784D01*
X145253Y377402D01*
X143298Y375447D01*
X141916Y373053D01*
X141200Y370382D01*
Y367618D01*
X141916Y364947D01*
X143298Y362553D01*
X145253Y360598D01*
X147622Y359230D01*
Y354300D01*
X147622Y354300D01*
X147932Y352739D01*
X148816Y351416D01*
X177267Y322966D01*
X177267Y322965D01*
X178590Y322081D01*
X180151Y321771D01*
X192868D01*
X193270Y320270D01*
X194488Y318161D01*
X196210Y316438D01*
X198320Y315221D01*
X200672Y314590D01*
X203108D01*
X205460Y315221D01*
X207570Y316438D01*
X209292Y318161D01*
X210510Y320270D01*
X211140Y322622D01*
Y325058D01*
X210510Y327411D01*
X209292Y329520D01*
X207570Y331242D01*
X205460Y332460D01*
X203108Y333090D01*
X200672D01*
X198320Y332460D01*
X196210Y331242D01*
X194896Y329928D01*
X181840D01*
X155778Y355989D01*
Y359230D01*
X158147Y360598D01*
X160102Y362553D01*
X161484Y364947D01*
X162200Y367618D01*
Y370382D01*
X161484Y373053D01*
X160102Y375447D01*
X158147Y377402D01*
X155753Y378784D01*
X153082Y379500D01*
D02*
G37*
G36*
X323857Y326940D02*
X321223D01*
X318680Y326259D01*
X316400Y324942D01*
X314538Y323080D01*
X313221Y320800D01*
X312540Y318256D01*
Y315623D01*
X313221Y313080D01*
X314538Y310800D01*
X316400Y308938D01*
X318680Y307621D01*
X321223Y306940D01*
X323857D01*
X326400Y307621D01*
X328680Y308938D01*
X330542Y310800D01*
X331858Y313080D01*
X332540Y315623D01*
Y318256D01*
X331858Y320800D01*
X330542Y323080D01*
X328680Y324942D01*
X326400Y326259D01*
X323857Y326940D01*
D02*
G37*
G36*
X247656D02*
X245023D01*
X242480Y326259D01*
X240200Y324942D01*
X238338Y323080D01*
X237022Y320800D01*
X236340Y318256D01*
Y315623D01*
X237022Y313080D01*
X238338Y310800D01*
X240200Y308938D01*
X242480Y307621D01*
X245023Y306940D01*
X247656D01*
X250200Y307621D01*
X252480Y308938D01*
X254342Y310800D01*
X255658Y313080D01*
X256340Y315623D01*
Y318256D01*
X255658Y320800D01*
X254342Y323080D01*
X252480Y324942D01*
X250200Y326259D01*
X247656Y326940D01*
D02*
G37*
G36*
Y301540D02*
X245023D01*
X242480Y300858D01*
X240200Y299542D01*
X238338Y297680D01*
X237022Y295400D01*
X236340Y292857D01*
Y290224D01*
X237022Y287680D01*
X238338Y285400D01*
X240200Y283538D01*
X242480Y282222D01*
X245023Y281540D01*
X247656D01*
X250200Y282222D01*
X252480Y283538D01*
X254342Y285400D01*
X255658Y287680D01*
X256340Y290224D01*
Y292857D01*
X255658Y295400D01*
X254342Y297680D01*
X252480Y299542D01*
X250200Y300858D01*
X247656Y301540D01*
D02*
G37*
G36*
X629490Y277570D02*
X619720D01*
Y267800D01*
X619903D01*
X622711Y268552D01*
X625229Y270006D01*
X627284Y272061D01*
X628738Y274579D01*
X629490Y277387D01*
Y277570D01*
D02*
G37*
G36*
X617180D02*
X607410D01*
Y277387D01*
X608162Y274579D01*
X609616Y272061D01*
X611671Y270006D01*
X614189Y268552D01*
X616997Y267800D01*
X617180D01*
Y277570D01*
D02*
G37*
G36*
X332580Y264870D02*
X323810D01*
Y256100D01*
X323862D01*
X326415Y256784D01*
X328705Y258106D01*
X330574Y259975D01*
X331896Y262265D01*
X332580Y264818D01*
Y264870D01*
D02*
G37*
G36*
X321270Y276180D02*
X321218D01*
X318665Y275496D01*
X316375Y274174D01*
X314506Y272305D01*
X314093Y271590D01*
X295870D01*
X294270Y271272D01*
X292914Y270366D01*
X267468Y244920D01*
X255520D01*
X254374Y246905D01*
X252505Y248774D01*
X250215Y250096D01*
X247662Y250780D01*
X247610D01*
Y240740D01*
Y230700D01*
X247662D01*
X250215Y231384D01*
X252505Y232706D01*
X254374Y234575D01*
X255520Y236560D01*
X269200D01*
X270800Y236878D01*
X272156Y237784D01*
X297602Y263230D01*
X312926D01*
X313184Y262265D01*
X314506Y259975D01*
X316375Y258106D01*
X318665Y256784D01*
X321218Y256100D01*
X321270D01*
Y266140D01*
Y276180D01*
D02*
G37*
G36*
X74500Y282260D02*
X64730D01*
Y271220D01*
Y260180D01*
X74500D01*
Y264500D01*
X107848D01*
X118738Y253610D01*
X118459Y252570D01*
X125690D01*
Y259801D01*
X124650Y259522D01*
X112536Y271636D01*
X111180Y272542D01*
X109580Y272860D01*
X74500D01*
Y282260D01*
D02*
G37*
G36*
X550800Y316550D02*
X533800D01*
Y312230D01*
X402550D01*
X400950Y311912D01*
X399594Y311006D01*
X333508Y244920D01*
X331674D01*
X330542Y246880D01*
X328680Y248742D01*
X326400Y250058D01*
X323857Y250740D01*
X321223D01*
X318680Y250058D01*
X316400Y248742D01*
X314538Y246880D01*
X313221Y244600D01*
X312540Y242057D01*
Y239424D01*
X313221Y236880D01*
X314538Y234600D01*
X316400Y232738D01*
X318680Y231422D01*
X321223Y230740D01*
X323857D01*
X326400Y231422D01*
X328680Y232738D01*
X330542Y234600D01*
X331674Y236560D01*
X335240D01*
X336840Y236878D01*
X338196Y237784D01*
X404282Y303870D01*
X533800D01*
Y299550D01*
X538120D01*
Y286410D01*
X538438Y284811D01*
X539344Y283454D01*
X572314Y250484D01*
X573670Y249578D01*
X575270Y249260D01*
X608182D01*
X608200Y249194D01*
X609648Y246686D01*
X611696Y244638D01*
X614204Y243190D01*
X617002Y242440D01*
X619898D01*
X622696Y243190D01*
X625204Y244638D01*
X627252Y246686D01*
X628700Y249194D01*
X629450Y251992D01*
Y254888D01*
X628700Y257686D01*
X627252Y260194D01*
X625204Y262242D01*
X622696Y263690D01*
X619898Y264440D01*
X617002D01*
X614204Y263690D01*
X611696Y262242D01*
X609648Y260194D01*
X608200Y257686D01*
X608182Y257620D01*
X577001D01*
X546480Y288142D01*
Y299550D01*
X550800D01*
Y316550D01*
D02*
G37*
G36*
X245070Y250780D02*
X245018D01*
X242465Y250096D01*
X240175Y248774D01*
X238306Y246905D01*
X236984Y244615D01*
X236300Y242062D01*
Y242010D01*
X245070D01*
Y250780D01*
D02*
G37*
G36*
X211180Y243130D02*
X203160D01*
Y233840D01*
Y224550D01*
X211180D01*
Y229660D01*
X236247D01*
X237847Y229978D01*
X239203Y230884D01*
X240714Y232395D01*
X242465Y231384D01*
X245018Y230700D01*
X245070D01*
Y239470D01*
X235965D01*
X234515Y238020D01*
X211180D01*
Y243130D01*
D02*
G37*
G36*
X128230Y259801D02*
Y251300D01*
X126960D01*
Y250030D01*
X118459D01*
X119002Y248004D01*
X120126Y246056D01*
X121716Y244466D01*
X122780Y243852D01*
Y233582D01*
X100074Y210876D01*
X99168Y209520D01*
X98850Y207920D01*
Y185958D01*
X97787Y185344D01*
X96196Y183754D01*
X95072Y181806D01*
X94529Y179780D01*
X103030D01*
X111531D01*
X110988Y181806D01*
X109864Y183754D01*
X108274Y185344D01*
X107211Y185958D01*
Y206189D01*
X129916Y228894D01*
X130822Y230250D01*
X131140Y231850D01*
Y243852D01*
X132204Y244466D01*
X133794Y246056D01*
X134408Y247120D01*
X150229D01*
X164644Y232704D01*
X166000Y231798D01*
X167600Y231480D01*
X192600D01*
Y224550D01*
X200620D01*
Y233840D01*
Y243130D01*
X192600D01*
Y239840D01*
X169331D01*
X154916Y254256D01*
X153560Y255162D01*
X151960Y255480D01*
X134408D01*
X133794Y256544D01*
X132204Y258134D01*
X130256Y259258D01*
X128230Y259801D01*
D02*
G37*
G36*
X619898Y239040D02*
X617002D01*
X614204Y238290D01*
X611696Y236842D01*
X609648Y234794D01*
X608200Y232286D01*
X607450Y229488D01*
Y226592D01*
X608200Y223794D01*
X609648Y221286D01*
X611696Y219238D01*
X614204Y217790D01*
X617002Y217040D01*
X619898D01*
X622696Y217790D01*
X625204Y219238D01*
X627252Y221286D01*
X628700Y223794D01*
X629450Y226592D01*
Y229488D01*
X628700Y232286D01*
X627252Y234794D01*
X625204Y236842D01*
X622696Y238290D01*
X619898Y239040D01*
D02*
G37*
G36*
X323857Y225340D02*
X321223D01*
X318680Y224659D01*
X316400Y223342D01*
X314538Y221480D01*
X313221Y219200D01*
X312540Y216656D01*
Y214023D01*
X313221Y211480D01*
X314538Y209200D01*
X316400Y207338D01*
X318680Y206021D01*
X321223Y205340D01*
X323857D01*
X326400Y206021D01*
X328680Y207338D01*
X330542Y209200D01*
X331858Y211480D01*
X332540Y214023D01*
Y216656D01*
X331858Y219200D01*
X330542Y221480D01*
X328680Y223342D01*
X326400Y224659D01*
X323857Y225340D01*
D02*
G37*
G36*
X247656D02*
X245023D01*
X242480Y224659D01*
X240200Y223342D01*
X238338Y221480D01*
X237022Y219200D01*
X236340Y216656D01*
Y214023D01*
X237022Y211480D01*
X237838Y210066D01*
X192734Y164961D01*
X191419Y165070D01*
X190912Y165949D01*
X189329Y167532D01*
X187391Y168651D01*
X185229Y169230D01*
X182991D01*
X180829Y168651D01*
X178891Y167532D01*
X177308Y165949D01*
X176650Y164808D01*
X147499D01*
X136530Y175778D01*
Y187010D01*
X119530D01*
Y170010D01*
X130762D01*
X142926Y157846D01*
X142926Y157846D01*
X144249Y156962D01*
X145810Y156652D01*
X176650D01*
X177308Y155511D01*
X178891Y153928D01*
X180829Y152809D01*
X182991Y152230D01*
X185229D01*
X187391Y152809D01*
X189329Y153928D01*
X190912Y155511D01*
X191570Y156652D01*
X194270D01*
X194270Y156652D01*
X195831Y156962D01*
X197154Y157846D01*
X244727Y205420D01*
X245023Y205340D01*
X247656D01*
X250200Y206021D01*
X252480Y207338D01*
X254342Y209200D01*
X255658Y211480D01*
X256340Y214023D01*
Y216656D01*
X255658Y219200D01*
X254342Y221480D01*
X252480Y223342D01*
X250200Y224659D01*
X247656Y225340D01*
D02*
G37*
G36*
X428810Y300020D02*
X409310D01*
Y284914D01*
X409232Y284520D01*
X409232Y284520D01*
Y282399D01*
X326156Y199324D01*
X323857Y199940D01*
X321223D01*
X318680Y199258D01*
X316400Y197942D01*
X314538Y196080D01*
X313221Y193800D01*
X312540Y191257D01*
Y188624D01*
X313221Y186080D01*
X314538Y183800D01*
X316400Y181938D01*
X318680Y180621D01*
X321223Y179940D01*
X323857D01*
X326400Y180621D01*
X328680Y181938D01*
X330542Y183800D01*
X331858Y186080D01*
X332540Y188624D01*
Y191257D01*
X331924Y193556D01*
X416194Y277826D01*
X416194Y277826D01*
X417078Y279149D01*
X417351Y280520D01*
X428810D01*
Y300020D01*
D02*
G37*
G36*
X619898Y213640D02*
X617002D01*
X614204Y212890D01*
X611696Y211442D01*
X609648Y209394D01*
X608200Y206886D01*
X607450Y204088D01*
Y201192D01*
X608200Y198394D01*
X609648Y195886D01*
X611696Y193838D01*
X614204Y192390D01*
X617002Y191640D01*
X619898D01*
X622696Y192390D01*
X625204Y193838D01*
X627252Y195886D01*
X628700Y198394D01*
X629450Y201192D01*
Y204088D01*
X628700Y206886D01*
X627252Y209394D01*
X625204Y211442D01*
X622696Y212890D01*
X619898Y213640D01*
D02*
G37*
G36*
X626670Y408340D02*
X618450D01*
Y398850D01*
X617180D01*
Y397580D01*
X607690D01*
Y389360D01*
X614985D01*
X615152Y388090D01*
X613532Y387656D01*
X611378Y386412D01*
X609618Y384652D01*
X608374Y382497D01*
X607730Y380094D01*
Y377606D01*
X608374Y375202D01*
X609618Y373047D01*
X611378Y371288D01*
X613532Y370044D01*
X615535Y369507D01*
Y368193D01*
X613532Y367656D01*
X611378Y366412D01*
X609618Y364652D01*
X608623Y362928D01*
X598549D01*
X585774Y375704D01*
X584451Y376588D01*
X582890Y376898D01*
X582890Y376898D01*
X403820D01*
X402259Y376588D01*
X400936Y375704D01*
X400936Y375704D01*
X326156Y300924D01*
X323857Y301540D01*
X321223D01*
X318680Y300858D01*
X316400Y299542D01*
X314538Y297680D01*
X313221Y295400D01*
X312540Y292857D01*
Y290224D01*
X313221Y287680D01*
X314538Y285400D01*
X316400Y283538D01*
X318680Y282222D01*
X321223Y281540D01*
X323857D01*
X326400Y282222D01*
X328680Y283538D01*
X330542Y285400D01*
X331858Y287680D01*
X332540Y290224D01*
Y292857D01*
X331924Y295156D01*
X405509Y368742D01*
X581201D01*
X593976Y355966D01*
X593976Y355966D01*
X595299Y355082D01*
X596860Y354772D01*
X608623D01*
X609618Y353048D01*
X611378Y351288D01*
X613532Y350044D01*
X615936Y349400D01*
X618424D01*
X620828Y350044D01*
X622982Y351288D01*
X624742Y353048D01*
X625986Y355202D01*
X626630Y357606D01*
Y360094D01*
X625986Y362498D01*
X624742Y364652D01*
X622982Y366412D01*
X620828Y367656D01*
X618825Y368193D01*
Y369507D01*
X620828Y370044D01*
X622982Y371288D01*
X624742Y373047D01*
X625986Y375202D01*
X626630Y377606D01*
Y380094D01*
X625986Y382497D01*
X624742Y384652D01*
X622982Y386412D01*
X620828Y387656D01*
X619208Y388090D01*
X619375Y389360D01*
X626670D01*
Y394670D01*
X638949D01*
X644750Y388868D01*
Y304610D01*
X632420D01*
X630820Y304292D01*
X629464Y303386D01*
X617889Y291810D01*
X616982Y290454D01*
X616861Y289844D01*
X614189Y289128D01*
X611671Y287674D01*
X609616Y285619D01*
X608162Y283101D01*
X607410Y280293D01*
Y280110D01*
X618450D01*
X629490D01*
Y280293D01*
X628738Y283101D01*
X627284Y285619D01*
X625402Y287500D01*
X634151Y296250D01*
X644750D01*
Y195481D01*
X630689Y181420D01*
X628759D01*
X628738Y181501D01*
X627284Y184019D01*
X625229Y186074D01*
X622711Y187528D01*
X619903Y188280D01*
X619720D01*
Y177240D01*
Y166200D01*
X619903D01*
X622711Y166952D01*
X625229Y168406D01*
X627284Y170461D01*
X628738Y172979D01*
X628759Y173060D01*
X632420D01*
X634020Y173378D01*
X635376Y174284D01*
X651886Y190794D01*
X652792Y192150D01*
X653110Y193750D01*
Y300430D01*
Y390600D01*
X652792Y392200D01*
X651886Y393556D01*
X643636Y401806D01*
X642280Y402712D01*
X640680Y403030D01*
X626670D01*
Y408340D01*
D02*
G37*
G36*
X247656Y199940D02*
X245023D01*
X242480Y199258D01*
X240200Y197942D01*
X238338Y196080D01*
X237022Y193800D01*
X236340Y191257D01*
Y188624D01*
X236956Y186324D01*
X181226Y130594D01*
X180342Y129271D01*
X180032Y127710D01*
X180032Y127710D01*
Y120430D01*
X175610D01*
Y109198D01*
X170261Y103848D01*
X135260D01*
Y108270D01*
X118260D01*
Y91270D01*
X135260D01*
Y95692D01*
X171950D01*
X171950Y95692D01*
X173511Y96002D01*
X174834Y96886D01*
X181378Y103430D01*
X192610D01*
Y120430D01*
X188188D01*
Y126021D01*
X242724Y180556D01*
X245023Y179940D01*
X247656D01*
X250200Y180621D01*
X252480Y181938D01*
X254342Y183800D01*
X255658Y186080D01*
X256340Y188624D01*
Y191257D01*
X255658Y193800D01*
X254342Y196080D01*
X252480Y197942D01*
X250200Y199258D01*
X247656Y199940D01*
D02*
G37*
G36*
X617180Y188280D02*
X616997D01*
X614189Y187528D01*
X611671Y186074D01*
X609616Y184019D01*
X608849Y182690D01*
X584710D01*
X583110Y182372D01*
X581754Y181466D01*
X578743Y178455D01*
X577090Y178897D01*
Y170890D01*
X585098D01*
X584655Y172543D01*
X586442Y174330D01*
X607800D01*
X608162Y172979D01*
X609616Y170461D01*
X611671Y168406D01*
X614189Y166952D01*
X616997Y166200D01*
X617180D01*
Y177240D01*
Y188280D01*
D02*
G37*
G36*
X574550Y178897D02*
X572234Y178277D01*
X570116Y177054D01*
X568386Y175324D01*
X567163Y173206D01*
X566543Y170890D01*
X574550D01*
Y178897D01*
D02*
G37*
G36*
X408800Y190500D02*
X387800D01*
Y180636D01*
X387557D01*
X385997Y180325D01*
X384674Y179441D01*
X384674Y179441D01*
X350116Y144884D01*
X349232Y143561D01*
X348922Y142000D01*
X348922Y142000D01*
Y97689D01*
X343651Y92418D01*
X331732D01*
X330542Y94480D01*
X328680Y96342D01*
X326400Y97659D01*
X323857Y98340D01*
X321223D01*
X318680Y97659D01*
X316400Y96342D01*
X314538Y94480D01*
X313221Y92200D01*
X312540Y89656D01*
Y87023D01*
X313221Y84480D01*
X314538Y82200D01*
X316400Y80338D01*
X318680Y79022D01*
X321223Y78340D01*
X323857D01*
X326400Y79022D01*
X328680Y80338D01*
X330542Y82200D01*
X331732Y84262D01*
X345340D01*
X345340Y84262D01*
X346901Y84572D01*
X348224Y85456D01*
X355884Y93116D01*
X355884Y93116D01*
X356768Y94439D01*
X357078Y96000D01*
Y140311D01*
X386716Y169949D01*
X387800Y169500D01*
Y169500D01*
X408800D01*
Y190500D01*
D02*
G37*
G36*
X425082D02*
X422318D01*
X419647Y189784D01*
X417253Y188402D01*
X415298Y186447D01*
X413916Y184053D01*
X413200Y181382D01*
Y178618D01*
X413916Y175947D01*
X415298Y173553D01*
X417253Y171598D01*
X419647Y170216D01*
X422318Y169500D01*
X425082D01*
X427724Y170208D01*
X429816Y168116D01*
X429816Y168116D01*
X431139Y167232D01*
X432700Y166922D01*
X432700Y166922D01*
X476570D01*
Y160370D01*
X495070D01*
Y178870D01*
X476570D01*
Y175078D01*
X434389D01*
X433492Y175976D01*
X434200Y178618D01*
Y181382D01*
X433484Y184053D01*
X432102Y186447D01*
X430147Y188402D01*
X427753Y189784D01*
X425082Y190500D01*
D02*
G37*
G36*
X323857Y174540D02*
X321223D01*
X318680Y173859D01*
X316400Y172542D01*
X314538Y170680D01*
X313221Y168400D01*
X312540Y165856D01*
Y163223D01*
X313221Y160680D01*
X314538Y158400D01*
X316400Y156538D01*
X318680Y155222D01*
X321223Y154540D01*
X323857D01*
X326400Y155222D01*
X328680Y156538D01*
X330542Y158400D01*
X331858Y160680D01*
X332540Y163223D01*
Y165856D01*
X331858Y168400D01*
X330542Y170680D01*
X328680Y172542D01*
X326400Y173859D01*
X323857Y174540D01*
D02*
G37*
G36*
X247656D02*
X245023D01*
X242480Y173859D01*
X240200Y172542D01*
X238338Y170680D01*
X237022Y168400D01*
X236340Y165856D01*
Y163223D01*
X237022Y160680D01*
X238338Y158400D01*
X240200Y156538D01*
X242480Y155222D01*
X245023Y154540D01*
X247656D01*
X250200Y155222D01*
X252480Y156538D01*
X254342Y158400D01*
X255658Y160680D01*
X256340Y163223D01*
Y165856D01*
X255658Y168400D01*
X254342Y170680D01*
X252480Y172542D01*
X250200Y173859D01*
X247656Y174540D01*
D02*
G37*
G36*
X619898Y162840D02*
X617002D01*
X614204Y162090D01*
X611696Y160642D01*
X609648Y158594D01*
X608200Y156086D01*
X607450Y153288D01*
Y150392D01*
X608200Y147594D01*
X609648Y145086D01*
X611696Y143038D01*
X614204Y141590D01*
X617002Y140840D01*
X619898D01*
X622696Y141590D01*
X625204Y143038D01*
X627252Y145086D01*
X628700Y147594D01*
X629450Y150392D01*
Y153288D01*
X628700Y156086D01*
X627252Y158594D01*
X625204Y160642D01*
X622696Y162090D01*
X619898Y162840D01*
D02*
G37*
G36*
X323857Y149140D02*
X321223D01*
X318680Y148458D01*
X316400Y147142D01*
X314538Y145280D01*
X313221Y143000D01*
X312540Y140456D01*
Y137823D01*
X313221Y135280D01*
X314538Y133000D01*
X316400Y131138D01*
X318680Y129822D01*
X321223Y129140D01*
X323857D01*
X326400Y129822D01*
X328680Y131138D01*
X330542Y133000D01*
X331858Y135280D01*
X332540Y137823D01*
Y140456D01*
X331858Y143000D01*
X330542Y145280D01*
X328680Y147142D01*
X326400Y148458D01*
X323857Y149140D01*
D02*
G37*
G36*
X247656D02*
X245023D01*
X242480Y148458D01*
X240200Y147142D01*
X238338Y145280D01*
X237022Y143000D01*
X236340Y140456D01*
Y137823D01*
X237022Y135280D01*
X238338Y133000D01*
X240200Y131138D01*
X242480Y129822D01*
X245023Y129140D01*
X247656D01*
X250200Y129822D01*
X252480Y131138D01*
X254342Y133000D01*
X255658Y135280D01*
X256340Y137823D01*
Y140456D01*
X255658Y143000D01*
X254342Y145280D01*
X252480Y147142D01*
X250200Y148458D01*
X247656Y149140D01*
D02*
G37*
G36*
X619898Y137440D02*
X617002D01*
X614204Y136690D01*
X611696Y135242D01*
X609648Y133194D01*
X608200Y130686D01*
X607450Y127888D01*
Y124992D01*
X608200Y122194D01*
X609648Y119686D01*
X611696Y117638D01*
X614204Y116190D01*
X617002Y115440D01*
X619898D01*
X622696Y116190D01*
X625204Y117638D01*
X627252Y119686D01*
X628700Y122194D01*
X629450Y124992D01*
Y127888D01*
X628700Y130686D01*
X627252Y133194D01*
X625204Y135242D01*
X622696Y136690D01*
X619898Y137440D01*
D02*
G37*
G36*
X323857Y123740D02*
X321223D01*
X318680Y123059D01*
X316400Y121742D01*
X314538Y119880D01*
X313221Y117600D01*
X312540Y115056D01*
Y112423D01*
X313221Y109880D01*
X314538Y107600D01*
X316400Y105738D01*
X318680Y104422D01*
X321223Y103740D01*
X323857D01*
X326400Y104422D01*
X328680Y105738D01*
X330542Y107600D01*
X331858Y109880D01*
X332540Y112423D01*
Y115056D01*
X331858Y117600D01*
X330542Y119880D01*
X328680Y121742D01*
X326400Y123059D01*
X323857Y123740D01*
D02*
G37*
G36*
X247656D02*
X245023D01*
X242480Y123059D01*
X240200Y121742D01*
X238338Y119880D01*
X237022Y117600D01*
X236340Y115056D01*
Y112423D01*
X237022Y109880D01*
X238338Y107600D01*
X240200Y105738D01*
X242480Y104422D01*
X245023Y103740D01*
X247656D01*
X250200Y104422D01*
X252480Y105738D01*
X254342Y107600D01*
X255658Y109880D01*
X256340Y112423D01*
Y115056D01*
X255658Y117600D01*
X254342Y119880D01*
X252480Y121742D01*
X250200Y123059D01*
X247656Y123740D01*
D02*
G37*
G36*
X111531Y177240D02*
X103030D01*
X94529D01*
X95072Y175214D01*
X96196Y173266D01*
X97787Y171676D01*
X98215Y171429D01*
Y107584D01*
X96517Y106604D01*
X94927Y105014D01*
X93802Y103066D01*
X93259Y101040D01*
X101760D01*
X110261D01*
X109718Y103066D01*
X108594Y105014D01*
X107004Y106604D01*
X106575Y106851D01*
Y170696D01*
X108274Y171676D01*
X109864Y173266D01*
X110988Y175214D01*
X111531Y177240D01*
D02*
G37*
G36*
X585098Y168350D02*
X566543D01*
X567163Y166034D01*
X568386Y163916D01*
X570116Y162186D01*
X572234Y160963D01*
X573630Y160589D01*
Y101541D01*
X571923Y99835D01*
X570270Y100277D01*
Y92270D01*
X578278D01*
X577835Y93923D01*
X580766Y96854D01*
X581672Y98210D01*
X581990Y99810D01*
Y162652D01*
X583254Y163916D01*
X584477Y166034D01*
X585098Y168350D01*
D02*
G37*
G36*
X567730Y100277D02*
X565414Y99657D01*
X563296Y98434D01*
X561566Y96704D01*
X560343Y94586D01*
X559723Y92270D01*
X567730D01*
Y100277D01*
D02*
G37*
G36*
X110261Y98500D02*
X103030D01*
Y91269D01*
X105056Y91812D01*
X107004Y92936D01*
X108594Y94526D01*
X109718Y96474D01*
X110261Y98500D01*
D02*
G37*
G36*
X100490D02*
X93259D01*
X93802Y96474D01*
X94927Y94526D01*
X96517Y92936D01*
X98464Y91812D01*
X100490Y91269D01*
Y98500D01*
D02*
G37*
G36*
X619898Y112040D02*
X617002D01*
X614204Y111290D01*
X611696Y109842D01*
X609648Y107794D01*
X608200Y105286D01*
X607450Y102488D01*
Y99592D01*
X608200Y96794D01*
X609648Y94286D01*
X611696Y92238D01*
X614204Y90790D01*
X617002Y90040D01*
X619898D01*
X622696Y90790D01*
X625204Y92238D01*
X627252Y94286D01*
X628700Y96794D01*
X629450Y99592D01*
Y102488D01*
X628700Y105286D01*
X627252Y107794D01*
X625204Y109842D01*
X622696Y111290D01*
X619898Y112040D01*
D02*
G37*
G36*
X423082Y111500D02*
X420318D01*
X417647Y110784D01*
X415253Y109402D01*
X413298Y107447D01*
X411916Y105053D01*
X411200Y102382D01*
Y99618D01*
X411916Y96947D01*
X413298Y94553D01*
X415253Y92598D01*
X417647Y91216D01*
X420318Y90500D01*
X423082D01*
X425724Y91208D01*
X428926Y88007D01*
X428926Y88007D01*
X430249Y87123D01*
X431809Y86812D01*
X469750D01*
Y81750D01*
X488250D01*
Y100250D01*
X469750D01*
Y94969D01*
X433499D01*
X431492Y96976D01*
X432200Y99618D01*
Y102382D01*
X431484Y105053D01*
X430102Y107447D01*
X428147Y109402D01*
X425753Y110784D01*
X423082Y111500D01*
D02*
G37*
G36*
X578278Y89730D02*
X570270D01*
Y81723D01*
X572586Y82343D01*
X574704Y83566D01*
X576434Y85296D01*
X577657Y87414D01*
X578278Y89730D01*
D02*
G37*
G36*
X567730D02*
X559723D01*
X560343Y87414D01*
X561566Y85296D01*
X563296Y83566D01*
X565414Y82343D01*
X567730Y81723D01*
Y89730D01*
D02*
G37*
G36*
X406800Y111500D02*
X385800D01*
Y96268D01*
X360611Y71078D01*
X269369D01*
X255724Y84724D01*
X256340Y87023D01*
Y89656D01*
X255658Y92200D01*
X254342Y94480D01*
X252480Y96342D01*
X250200Y97659D01*
X247656Y98340D01*
X245023D01*
X242480Y97659D01*
X240200Y96342D01*
X238338Y94480D01*
X237022Y92200D01*
X236340Y89656D01*
Y87023D01*
X237022Y84480D01*
X238338Y82200D01*
X240200Y80338D01*
X242480Y79022D01*
X245023Y78340D01*
X247656D01*
X249956Y78956D01*
X264796Y64116D01*
X264796Y64116D01*
X266119Y63232D01*
X267680Y62922D01*
X267680Y62922D01*
X362300D01*
X362300Y62922D01*
X363861Y63232D01*
X365184Y64116D01*
X391568Y90500D01*
X406800D01*
Y111500D01*
D02*
G37*
G36*
X619898Y86640D02*
X617002D01*
X614204Y85890D01*
X611696Y84442D01*
X609648Y82394D01*
X608200Y79886D01*
X607450Y77088D01*
Y74192D01*
X608200Y71394D01*
X609648Y68886D01*
X611696Y66838D01*
X614204Y65390D01*
X617002Y64640D01*
X619898D01*
X622696Y65390D01*
X625204Y66838D01*
X627252Y68886D01*
X628700Y71394D01*
X629450Y74192D01*
Y77088D01*
X628700Y79886D01*
X627252Y82394D01*
X625204Y84442D01*
X622696Y85890D01*
X619898Y86640D01*
D02*
G37*
G36*
X629450Y61240D02*
X607450D01*
Y39240D01*
X629450D01*
Y61240D01*
D02*
G37*
%LPD*%
D15*
X618450Y278840D02*
D03*
Y253440D02*
D03*
Y228040D02*
D03*
Y202640D02*
D03*
Y177240D02*
D03*
Y151840D02*
D03*
Y126440D02*
D03*
Y101040D02*
D03*
Y75640D02*
D03*
X63460Y296620D02*
D03*
X177760Y456640D02*
D03*
X543520Y451560D02*
D03*
D16*
X618450Y50240D02*
D03*
X63460Y271220D02*
D03*
D24*
X617180Y358850D02*
D03*
Y378850D02*
D03*
D25*
Y398850D02*
D03*
D28*
X542300Y358850D02*
D03*
Y333450D02*
D03*
X101760Y99770D02*
D03*
X103030Y178510D02*
D03*
X126960Y251300D02*
D03*
X184110Y160730D02*
D03*
D29*
X542300Y308050D02*
D03*
X126760Y99770D02*
D03*
X128030Y178510D02*
D03*
D31*
X126960Y301300D02*
D03*
X184110Y111930D02*
D03*
D32*
X419060Y340270D02*
D03*
D33*
Y290270D02*
D03*
D37*
X3000Y3750D02*
Y541750D01*
X2750Y3500D02*
X3000Y3750D01*
X2750Y3500D02*
X681250D01*
X681500Y3750D01*
Y541250D01*
X680250Y542500D02*
X681500Y541250D01*
X3750Y542500D02*
X680250D01*
D38*
X618450Y177240D02*
X632420D01*
X575270Y253440D02*
X618450D01*
Y278840D02*
X620844Y281234D01*
Y288855D01*
X632420Y300430D01*
X648930D01*
X617180Y178510D02*
X618450Y177240D01*
X584710Y178510D02*
X617180D01*
X575820Y169620D02*
X584710Y178510D01*
X542300Y286410D02*
Y308050D01*
Y286410D02*
X575270Y253440D01*
X648930Y193750D02*
Y300430D01*
X632420Y177240D02*
X648930Y193750D01*
X123800Y366500D02*
X126300Y369000D01*
X126960Y301300D02*
Y363340D01*
X123800Y366500D02*
X126960Y363340D01*
X577810Y99810D02*
Y164843D01*
X569000Y91000D02*
X577810Y99810D01*
X575820Y166833D02*
Y169620D01*
Y166833D02*
X577810Y164843D01*
X66000Y268680D02*
X109580D01*
X63460Y271220D02*
X66000Y268680D01*
X109580D02*
X126960Y251300D01*
X66000Y299160D02*
X124820D01*
X63460Y296620D02*
X66000Y299160D01*
X124820D02*
X126960Y301300D01*
X402550Y308050D02*
X542300D01*
X335240Y240740D02*
X402550Y308050D01*
X322540Y240740D02*
X335240D01*
X617180Y398850D02*
X640680D01*
X648930Y300430D02*
Y390600D01*
X640680Y398850D02*
X648930Y390600D01*
X322540Y266140D02*
X396670Y340270D01*
X236247Y233840D02*
X243147Y240740D01*
X144340Y283920D02*
X228560D01*
X295870Y267410D02*
X321270D01*
X246340Y240740D02*
X269200D01*
X243147D02*
X246340D01*
X228560Y283920D02*
X246340Y266140D01*
X321270Y267410D02*
X322540Y266140D01*
X269200Y240740D02*
X295870Y267410D01*
X126960Y301300D02*
X144340Y283920D01*
X201890Y233840D02*
X236247D01*
X396670Y340270D02*
X419060D01*
X523720D01*
X542300Y358850D01*
X543520Y447915D02*
Y451560D01*
X167600Y235660D02*
X200070D01*
X201890Y233840D01*
X151960Y251300D02*
X167600Y235660D01*
X126960Y251300D02*
X151960D01*
X102395Y100405D02*
Y177875D01*
X103030Y178510D01*
X101760Y99770D02*
X102395Y100405D01*
X103030Y207920D02*
X126960Y231850D01*
X103030Y178510D02*
Y207920D01*
X126960Y231850D02*
Y251300D01*
D39*
X151700Y354300D02*
Y369000D01*
X180151Y325849D02*
X199881D01*
X151700Y354300D02*
X180151Y325849D01*
X199881D02*
X201890Y323840D01*
X431809Y90891D02*
X478890D01*
X421700Y101000D02*
X431809Y90891D01*
X267680Y67000D02*
X362300D01*
X396300Y101000D01*
X246340Y88340D02*
X267680Y67000D01*
X394857Y176557D02*
X398300Y180000D01*
X353000Y142000D02*
X387557Y176557D01*
X353000Y96000D02*
Y142000D01*
X387557Y176557D02*
X394857D01*
X345340Y88340D02*
X353000Y96000D01*
X322540Y88340D02*
X345340D01*
X432700Y171000D02*
X484440D01*
X423700Y180000D02*
X432700Y171000D01*
X484440D02*
X485820Y169620D01*
X403820Y372820D02*
X582890D01*
X322540Y291540D02*
X403820Y372820D01*
X582890D02*
X596860Y358850D01*
X513227Y446667D02*
X518120Y451560D01*
X322540Y418540D02*
X478750D01*
X506877Y446667D02*
X513227D01*
X478750Y418540D02*
X506877Y446667D01*
X596860Y358850D02*
X617180D01*
X145810Y160730D02*
X194270D01*
X246340Y212800D01*
X322540Y189940D02*
X413310Y280710D01*
X217130Y393140D02*
X246340D01*
X205700Y367740D02*
X246340D01*
X252340Y427080D02*
X281900Y456640D01*
X246340Y418540D02*
X252340Y424540D01*
Y427080D01*
X184110Y127710D02*
X246340Y189940D01*
Y212800D02*
Y215340D01*
X184110Y111930D02*
Y127710D01*
X281900Y456640D02*
X344850D01*
X177760Y395680D02*
Y456640D01*
Y395680D02*
X205700Y367740D01*
X203160Y407110D02*
Y456640D01*
Y407110D02*
X217130Y393140D01*
X413310Y284520D02*
X419060Y290270D01*
X413310Y280710D02*
Y284520D01*
X126760Y99770D02*
X171950D01*
X184110Y111930D01*
X128030Y178510D02*
X145810Y160730D01*
D40*
X126300Y369000D02*
D03*
X396300Y101000D02*
D03*
X398300Y180000D02*
D03*
D41*
X151700Y369000D02*
D03*
X421700Y101000D02*
D03*
X423700Y180000D02*
D03*
D42*
X344850Y456640D02*
D03*
X479000Y91000D02*
D03*
X485820Y169620D02*
D03*
D43*
X434850Y456640D02*
D03*
X201890Y323840D02*
D03*
X569000Y91000D02*
D03*
X575820Y169620D02*
D03*
D44*
X203160Y456640D02*
D03*
X518120Y451560D02*
D03*
D45*
X322540Y88340D02*
D03*
Y113740D02*
D03*
Y139140D02*
D03*
Y164540D02*
D03*
Y189940D02*
D03*
Y215340D02*
D03*
Y240740D02*
D03*
Y266140D02*
D03*
Y291540D02*
D03*
Y316940D02*
D03*
Y342340D02*
D03*
Y367740D02*
D03*
Y393140D02*
D03*
Y418540D02*
D03*
X246340Y88340D02*
D03*
Y113740D02*
D03*
Y139140D02*
D03*
Y164540D02*
D03*
Y189940D02*
D03*
Y215340D02*
D03*
Y240740D02*
D03*
Y266140D02*
D03*
Y291540D02*
D03*
Y316940D02*
D03*
Y342340D02*
D03*
Y367740D02*
D03*
Y393140D02*
D03*
D46*
Y418540D02*
D03*
D47*
X201890Y233840D02*
D03*
D48*
X665000Y20000D02*
D03*
X20000D02*
D03*
Y525000D02*
D03*
X664000D02*
D03*
M02*
