G04*
G04 #@! TF.GenerationSoftware,Altium Limited,Altium Designer,22.9.1 (49)*
G04*
G04 Layer_Color=255*
%FSLAX44Y44*%
%MOMM*%
G71*
G04*
G04 #@! TF.SameCoordinates,8BA292B5-A8A8-46AB-8795-62B0E452CD41*
G04*
G04*
G04 #@! TF.FilePolarity,Positive*
G04*
G01*
G75*
%ADD15C,1.7000*%
%ADD16R,1.7000X1.7000*%
%ADD24C,1.3900*%
%ADD25R,1.3900X1.3900*%
%ADD28C,1.2000*%
%ADD29R,1.2000X1.2000*%
%ADD31R,1.2000X1.2000*%
%ADD32C,1.4500*%
%ADD33R,1.4500X1.4500*%
%ADD40R,1.6000X1.6000*%
%ADD41C,1.6000*%
%ADD42R,1.3500X1.3500*%
%ADD43C,1.3500*%
%ADD44R,1.7000X1.7000*%
%ADD45C,1.5000*%
%ADD46R,1.5000X1.5000*%
%ADD47R,1.3500X1.3500*%
D15*
X618450Y278840D02*
D03*
Y253440D02*
D03*
Y228040D02*
D03*
Y202640D02*
D03*
Y177240D02*
D03*
Y151840D02*
D03*
Y126440D02*
D03*
Y101040D02*
D03*
Y75640D02*
D03*
X63460Y296620D02*
D03*
X177760Y456640D02*
D03*
X543520Y451560D02*
D03*
D16*
X618450Y50240D02*
D03*
X63460Y271220D02*
D03*
D24*
X617180Y358850D02*
D03*
Y378850D02*
D03*
D25*
Y398850D02*
D03*
D28*
X542300Y358850D02*
D03*
Y333450D02*
D03*
X101760Y99770D02*
D03*
X103030Y178510D02*
D03*
X126960Y251300D02*
D03*
X184110Y160730D02*
D03*
D29*
X542300Y308050D02*
D03*
X126760Y99770D02*
D03*
X128030Y178510D02*
D03*
D31*
X126960Y301300D02*
D03*
X184110Y111930D02*
D03*
D32*
X419060Y340270D02*
D03*
D33*
Y290270D02*
D03*
D40*
X126300Y369000D02*
D03*
X396300Y101000D02*
D03*
X398300Y180000D02*
D03*
D41*
X151700Y369000D02*
D03*
X421700Y101000D02*
D03*
X423700Y180000D02*
D03*
D42*
X344850Y456640D02*
D03*
X479000Y91000D02*
D03*
X485820Y169620D02*
D03*
D43*
X434850Y456640D02*
D03*
X201890Y323840D02*
D03*
X569000Y91000D02*
D03*
X575820Y169620D02*
D03*
D44*
X203160Y456640D02*
D03*
X518120Y451560D02*
D03*
D45*
X322540Y88340D02*
D03*
Y113740D02*
D03*
Y139140D02*
D03*
Y164540D02*
D03*
Y189940D02*
D03*
Y215340D02*
D03*
Y240740D02*
D03*
Y266140D02*
D03*
Y291540D02*
D03*
Y316940D02*
D03*
Y342340D02*
D03*
Y367740D02*
D03*
Y393140D02*
D03*
Y418540D02*
D03*
X246340Y88340D02*
D03*
Y113740D02*
D03*
Y139140D02*
D03*
Y164540D02*
D03*
Y189940D02*
D03*
Y215340D02*
D03*
Y240740D02*
D03*
Y266140D02*
D03*
Y291540D02*
D03*
Y316940D02*
D03*
Y342340D02*
D03*
Y367740D02*
D03*
Y393140D02*
D03*
D46*
Y418540D02*
D03*
D47*
X201890Y233840D02*
D03*
M02*
