G04*
G04 #@! TF.GenerationSoftware,Altium Limited,Altium Designer,22.9.1 (49)*
G04*
G04 Layer_Color=2752767*
%FSLAX44Y44*%
%MOMM*%
G71*
G04*
G04 #@! TF.SameCoordinates,8BA292B5-A8A8-46AB-8795-62B0E452CD41*
G04*
G04*
G04 #@! TF.FilePolarity,Positive*
G04*
G01*
G75*
%ADD51C,0.0508*%
%ADD52C,0.0677*%
D51*
X616418Y276808D02*
X617434D01*
X618450Y277824D01*
X619466Y276808D01*
X620482D01*
Y277824D01*
X619466Y278840D01*
X620482Y279856D01*
Y280872D01*
X619466D01*
X618450Y279856D01*
X617434Y280872D01*
X616418D01*
Y279856D01*
X617434Y278840D01*
X616418Y277824D01*
Y276808D01*
Y251408D02*
X617434D01*
X618450Y252424D01*
X619466Y251408D01*
X620482D01*
Y252424D01*
X619466Y253440D01*
X620482Y254456D01*
Y255472D01*
X619466D01*
X618450Y254456D01*
X617434Y255472D01*
X616418D01*
Y254456D01*
X617434Y253440D01*
X616418Y252424D01*
Y251408D01*
Y226008D02*
X617434D01*
X618450Y227024D01*
X619466Y226008D01*
X620482D01*
Y227024D01*
X619466Y228040D01*
X620482Y229056D01*
Y230072D01*
X619466D01*
X618450Y229056D01*
X617434Y230072D01*
X616418D01*
Y229056D01*
X617434Y228040D01*
X616418Y227024D01*
Y226008D01*
Y200608D02*
X617434D01*
X618450Y201624D01*
X619466Y200608D01*
X620482D01*
Y201624D01*
X619466Y202640D01*
X620482Y203656D01*
Y204672D01*
X619466D01*
X618450Y203656D01*
X617434Y204672D01*
X616418D01*
Y203656D01*
X617434Y202640D01*
X616418Y201624D01*
Y200608D01*
Y175208D02*
X617434D01*
X618450Y176224D01*
X619466Y175208D01*
X620482D01*
Y176224D01*
X619466Y177240D01*
X620482Y178256D01*
Y179272D01*
X619466D01*
X618450Y178256D01*
X617434Y179272D01*
X616418D01*
Y178256D01*
X617434Y177240D01*
X616418Y176224D01*
Y175208D01*
Y149808D02*
X617434D01*
X618450Y150824D01*
X619466Y149808D01*
X620482D01*
Y150824D01*
X619466Y151840D01*
X620482Y152856D01*
Y153872D01*
X619466D01*
X618450Y152856D01*
X617434Y153872D01*
X616418D01*
Y152856D01*
X617434Y151840D01*
X616418Y150824D01*
Y149808D01*
Y124408D02*
X617434D01*
X618450Y125424D01*
X619466Y124408D01*
X620482D01*
Y125424D01*
X619466Y126440D01*
X620482Y127456D01*
Y128472D01*
X619466D01*
X618450Y127456D01*
X617434Y128472D01*
X616418D01*
Y127456D01*
X617434Y126440D01*
X616418Y125424D01*
Y124408D01*
Y99008D02*
X617434D01*
X618450Y100024D01*
X619466Y99008D01*
X620482D01*
Y100024D01*
X619466Y101040D01*
X620482Y102056D01*
Y103072D01*
X619466D01*
X618450Y102056D01*
X617434Y103072D01*
X616418D01*
Y102056D01*
X617434Y101040D01*
X616418Y100024D01*
Y99008D01*
Y73608D02*
X617434D01*
X618450Y74624D01*
X619466Y73608D01*
X620482D01*
Y74624D01*
X619466Y75640D01*
X620482Y76656D01*
Y77672D01*
X619466D01*
X618450Y76656D01*
X617434Y77672D01*
X616418D01*
Y76656D01*
X617434Y75640D01*
X616418Y74624D01*
Y73608D01*
Y48208D02*
X617434D01*
X618450Y49224D01*
X619466Y48208D01*
X620482D01*
Y49224D01*
X619466Y50240D01*
X620482Y51256D01*
Y52272D01*
X619466D01*
X618450Y51256D01*
X617434Y52272D01*
X616418D01*
Y51256D01*
X617434Y50240D01*
X616418Y49224D01*
Y48208D01*
X124268Y366968D02*
X125284D01*
X126300Y367984D01*
X127316Y366968D01*
X128332D01*
Y367984D01*
X127316Y369000D01*
X128332Y370016D01*
Y371032D01*
X127316D01*
X126300Y370016D01*
X125284Y371032D01*
X124268D01*
Y370016D01*
X125284Y369000D01*
X124268Y367984D01*
Y366968D01*
X149668D02*
X150684D01*
X151700Y367984D01*
X152716Y366968D01*
X153732D01*
Y367984D01*
X152716Y369000D01*
X153732Y370016D01*
Y371032D01*
X152716D01*
X151700Y370016D01*
X150684Y371032D01*
X149668D01*
Y370016D01*
X150684Y369000D01*
X149668Y367984D01*
Y366968D01*
X394268Y98968D02*
X395284D01*
X396300Y99984D01*
X397316Y98968D01*
X398332D01*
Y99984D01*
X397316Y101000D01*
X398332Y102016D01*
Y103032D01*
X397316D01*
X396300Y102016D01*
X395284Y103032D01*
X394268D01*
Y102016D01*
X395284Y101000D01*
X394268Y99984D01*
Y98968D01*
X419668D02*
X420684D01*
X421700Y99984D01*
X422716Y98968D01*
X423732D01*
Y99984D01*
X422716Y101000D01*
X423732Y102016D01*
Y103032D01*
X422716D01*
X421700Y102016D01*
X420684Y103032D01*
X419668D01*
Y102016D01*
X420684Y101000D01*
X419668Y99984D01*
Y98968D01*
X396268Y177968D02*
X397284D01*
X398300Y178984D01*
X399316Y177968D01*
X400332D01*
Y178984D01*
X399316Y180000D01*
X400332Y181016D01*
Y182032D01*
X399316D01*
X398300Y181016D01*
X397284Y182032D01*
X396268D01*
Y181016D01*
X397284Y180000D01*
X396268Y178984D01*
Y177968D01*
X421668D02*
X422684D01*
X423700Y178984D01*
X424716Y177968D01*
X425732D01*
Y178984D01*
X424716Y180000D01*
X425732Y181016D01*
Y182032D01*
X424716D01*
X423700Y181016D01*
X422684Y182032D01*
X421668D01*
Y181016D01*
X422684Y180000D01*
X421668Y178984D01*
Y177968D01*
X62444Y270204D02*
Y269188D01*
X64476D01*
Y270204D01*
X65492D01*
Y272236D01*
X64476D01*
Y273252D01*
X62444D01*
Y272236D01*
X61428D01*
Y270204D01*
X62444D01*
Y295604D02*
Y294588D01*
X64476D01*
Y295604D01*
X65492D01*
Y297636D01*
X64476D01*
Y298652D01*
X62444D01*
Y297636D01*
X61428D01*
Y295604D01*
X62444D01*
X342818Y454608D02*
X343834Y456640D01*
X342818Y458672D01*
X344850Y457656D01*
X346882Y458672D01*
X345866Y456640D01*
X346882Y454608D01*
X344850Y455624D01*
X342818Y454608D01*
X432818D02*
X433834Y456640D01*
X432818Y458672D01*
X434850Y457656D01*
X436882Y458672D01*
X435866Y456640D01*
X436882Y454608D01*
X434850Y455624D01*
X432818Y454608D01*
X202144Y455624D02*
Y454608D01*
X204176D01*
Y455624D01*
X205192D01*
Y457656D01*
X204176D01*
Y458672D01*
X202144D01*
Y457656D01*
X201128D01*
Y455624D01*
X202144D01*
X176744D02*
Y454608D01*
X178776D01*
Y455624D01*
X179792D01*
Y457656D01*
X178776D01*
Y458672D01*
X176744D01*
Y457656D01*
X175728D01*
Y455624D01*
X176744D01*
X615148Y356818D02*
Y360882D01*
X619212D01*
Y356818D01*
X615148D01*
Y376818D02*
Y380882D01*
X619212D01*
Y376818D01*
X615148D01*
Y396818D02*
Y400882D01*
X619212D01*
Y396818D01*
X615148D01*
X517104Y450544D02*
Y449528D01*
X519136D01*
Y450544D01*
X520152D01*
Y452576D01*
X519136D01*
Y453592D01*
X517104D01*
Y452576D01*
X516088D01*
Y450544D01*
X517104D01*
X542504D02*
Y449528D01*
X544536D01*
Y450544D01*
X545552D01*
Y452576D01*
X544536D01*
Y453592D01*
X542504D01*
Y452576D01*
X541488D01*
Y450544D01*
X542504D01*
X322540Y86308D02*
X320508Y90372D01*
X324572D01*
X322540Y86308D01*
Y111708D02*
X320508Y115772D01*
X324572D01*
X322540Y111708D01*
Y137108D02*
X320508Y141172D01*
X324572D01*
X322540Y137108D01*
Y162508D02*
X320508Y166572D01*
X324572D01*
X322540Y162508D01*
Y187908D02*
X320508Y191972D01*
X324572D01*
X322540Y187908D01*
Y213308D02*
X320508Y217372D01*
X324572D01*
X322540Y213308D01*
Y238708D02*
X320508Y242772D01*
X324572D01*
X322540Y238708D01*
Y264108D02*
X320508Y268172D01*
X324572D01*
X322540Y264108D01*
Y289508D02*
X320508Y293572D01*
X324572D01*
X322540Y289508D01*
Y314908D02*
X320508Y318972D01*
X324572D01*
X322540Y314908D01*
Y340308D02*
X320508Y344372D01*
X324572D01*
X322540Y340308D01*
Y365708D02*
X320508Y369772D01*
X324572D01*
X322540Y365708D01*
Y391108D02*
X320508Y395172D01*
X324572D01*
X322540Y391108D01*
Y416508D02*
X320508Y420572D01*
X324572D01*
X322540Y416508D01*
X246340Y86308D02*
X244308Y90372D01*
X248372D01*
X246340Y86308D01*
Y111708D02*
X244308Y115772D01*
X248372D01*
X246340Y111708D01*
Y137108D02*
X244308Y141172D01*
X248372D01*
X246340Y137108D01*
Y162508D02*
X244308Y166572D01*
X248372D01*
X246340Y162508D01*
Y187908D02*
X244308Y191972D01*
X248372D01*
X246340Y187908D01*
Y213308D02*
X244308Y217372D01*
X248372D01*
X246340Y213308D01*
Y238708D02*
X244308Y242772D01*
X248372D01*
X246340Y238708D01*
Y264108D02*
X244308Y268172D01*
X248372D01*
X246340Y264108D01*
Y289508D02*
X244308Y293572D01*
X248372D01*
X246340Y289508D01*
Y314908D02*
X244308Y318972D01*
X248372D01*
X246340Y314908D01*
Y340308D02*
X244308Y344372D01*
X248372D01*
X246340Y340308D01*
Y365708D02*
X244308Y369772D01*
X248372D01*
X246340Y365708D01*
Y391108D02*
X244308Y395172D01*
X248372D01*
X246340Y391108D01*
Y416508D02*
X244308Y420572D01*
X248372D01*
X246340Y416508D01*
X542300Y356818D02*
X543316Y357834D01*
X544332D01*
X543316Y358850D01*
X544332Y359866D01*
X543316D01*
X542300Y360882D01*
X541284Y359866D01*
X540268D01*
X541284Y358850D01*
X540268Y357834D01*
X541284D01*
X542300Y356818D01*
Y331418D02*
X543316Y332434D01*
X544332D01*
X543316Y333450D01*
X544332Y334466D01*
X543316D01*
X542300Y335482D01*
X541284Y334466D01*
X540268D01*
X541284Y333450D01*
X540268Y332434D01*
X541284D01*
X542300Y331418D01*
Y306018D02*
X543316Y307034D01*
X544332D01*
X543316Y308050D01*
X544332Y309066D01*
X543316D01*
X542300Y310082D01*
X541284Y309066D01*
X540268D01*
X541284Y308050D01*
X540268Y307034D01*
X541284D01*
X542300Y306018D01*
X199858Y231808D02*
X200874Y233840D01*
X199858Y235872D01*
X201890Y234856D01*
X203922Y235872D01*
X202906Y233840D01*
X203922Y231808D01*
X201890Y232824D01*
X199858Y231808D01*
Y321808D02*
X200874Y323840D01*
X199858Y325872D01*
X201890Y324856D01*
X203922Y325872D01*
X202906Y323840D01*
X203922Y321808D01*
X201890Y322824D01*
X199858Y321808D01*
X101760Y97738D02*
X102776Y98754D01*
X103792D01*
X102776Y99770D01*
X103792Y100786D01*
X102776D01*
X101760Y101802D01*
X100744Y100786D01*
X99728D01*
X100744Y99770D01*
X99728Y98754D01*
X100744D01*
X101760Y97738D01*
X126760D02*
X127776Y98754D01*
X128792D01*
X127776Y99770D01*
X128792Y100786D01*
X127776D01*
X126760Y101802D01*
X125744Y100786D01*
X124728D01*
X125744Y99770D01*
X124728Y98754D01*
X125744D01*
X126760Y97738D01*
X103030Y176478D02*
X104046Y177494D01*
X105062D01*
X104046Y178510D01*
X105062Y179526D01*
X104046D01*
X103030Y180542D01*
X102014Y179526D01*
X100998D01*
X102014Y178510D01*
X100998Y177494D01*
X102014D01*
X103030Y176478D01*
X128030D02*
X129046Y177494D01*
X130062D01*
X129046Y178510D01*
X130062Y179526D01*
X129046D01*
X128030Y180542D01*
X127014Y179526D01*
X125998D01*
X127014Y178510D01*
X125998Y177494D01*
X127014D01*
X128030Y176478D01*
X126960Y249268D02*
X127976Y250284D01*
X128992D01*
X127976Y251300D01*
X128992Y252316D01*
X127976D01*
X126960Y253332D01*
X125944Y252316D01*
X124928D01*
X125944Y251300D01*
X124928Y250284D01*
X125944D01*
X126960Y249268D01*
Y299268D02*
X127976Y300284D01*
X128992D01*
X127976Y301300D01*
X128992Y302316D01*
X127976D01*
X126960Y303332D01*
X125944Y302316D01*
X124928D01*
X125944Y301300D01*
X124928Y300284D01*
X125944D01*
X126960Y299268D01*
X476968Y88968D02*
X477984Y91000D01*
X476968Y93032D01*
X479000Y92016D01*
X481032Y93032D01*
X480016Y91000D01*
X481032Y88968D01*
X479000Y89984D01*
X476968Y88968D01*
X566968D02*
X567984Y91000D01*
X566968Y93032D01*
X569000Y92016D01*
X571032Y93032D01*
X570016Y91000D01*
X571032Y88968D01*
X569000Y89984D01*
X566968Y88968D01*
X483788Y167588D02*
X484804Y169620D01*
X483788Y171652D01*
X485820Y170636D01*
X487852Y171652D01*
X486836Y169620D01*
X487852Y167588D01*
X485820Y168604D01*
X483788Y167588D01*
X573788D02*
X574804Y169620D01*
X573788Y171652D01*
X575820Y170636D01*
X577852Y171652D01*
X576836Y169620D01*
X577852Y167588D01*
X575820Y168604D01*
X573788Y167588D01*
X417028Y338238D02*
Y342302D01*
X421092D01*
Y338238D01*
X417028D01*
X418044Y339254D02*
Y341286D01*
X420076D01*
Y339254D01*
X418044D01*
X417028Y288238D02*
Y292302D01*
X421092D01*
Y288238D01*
X417028D01*
X418044Y289254D02*
Y291286D01*
X420076D01*
Y289254D01*
X418044D01*
X184110Y109898D02*
X185126Y110914D01*
X186142D01*
X185126Y111930D01*
X186142Y112946D01*
X185126D01*
X184110Y113962D01*
X183094Y112946D01*
X182078D01*
X183094Y111930D01*
X182078Y110914D01*
X183094D01*
X184110Y109898D01*
Y158698D02*
X185126Y159714D01*
X186142D01*
X185126Y160730D01*
X186142Y161746D01*
X185126D01*
X184110Y162762D01*
X183094Y161746D01*
X182078D01*
X183094Y160730D01*
X182078Y159714D01*
X183094D01*
X184110Y158698D01*
D52*
X667032Y20000D02*
G03*
X667032Y20000I-2032J0D01*
G01*
X22032D02*
G03*
X22032Y20000I-2032J0D01*
G01*
Y525000D02*
G03*
X22032Y525000I-2032J0D01*
G01*
X666032D02*
G03*
X666032Y525000I-2032J0D01*
G01*
M02*
