M48
;Layer_Color=9474304
;FILE_FORMAT=4:4
METRIC,LZ
;TYPE=PLATED
T1F00S00C0.7000
T2F00S00C0.8500
T3F00S00C0.8900
T4F00S00C0.9000
T5F00S00C0.9500
T6F00S00C1.1000
T7F00S00C1.1900
T8F00S00C2.0000
%
T01
X005423Y0030805
X0012696Y003013
Y002513
X0012803Y0017851
X0010303
X0010176Y0009977
X0012676
X0018411Y0011193
Y0016073
X005423Y0033345
Y0035885
T02
X00569Y00091
X0057582Y0016962
X0048582
X00479Y00091
X0020189Y0023384
Y0032384
X0034485Y0045664
X0043485
T03
X0061718Y0035885
Y0037885
Y0039885
T04
X0024634Y0008834
Y0011374
Y0013914
Y0016454
Y0018994
Y0021534
Y0024074
Y0026614
Y0029154
Y0031694
X0032254
Y0029154
Y0026614
Y0024074
Y0021534
Y0018994
Y0016454
Y0013914
Y0011374
Y0008834
Y0034234
Y0036774
Y0039314
Y0041854
X0024634
Y0039314
Y0036774
Y0034234
T05
X0041906Y0029027
Y0034027
T06
X0061845Y0005024
Y0007564
Y0010104
Y0012644
Y0015184
Y0017724
Y0020264
Y0022804
Y0025344
Y0027884
X004237Y0018
X003983
X003963Y00101
X004217
X001517Y00369
X001263
T07
X0006346Y0027122
Y0029662
X0017776Y0045664
X0020316
X0051812Y0045156
X0054352
T08
X00665Y0002
X0002
Y00525
X00664
M30
